<svg id="Capa_1" enable-background="new 0 0 511.857 511.857" height="512" viewBox="0 0 511.857 511.857" width="512" xmlns="http://www.w3.org/2000/svg"><g><path d="m422.964 116.575c-.83 4.195 1.897 8.269 6.093 9.099 8.687 1.715 9.506-8.15 10.672-14.042 2.013-10.175-1.148-20.643-8.457-28.002-8.647-9.521-23.845-10.674-36.101-7.095-4.2.801-6.957 4.856-6.155 9.057.802 4.202 4.864 6.955 9.057 6.156 7.822-1.492 15.796-3.663 22.211 2.796 6.363 6.407 4.215 14.274 2.68 22.031z"/><path d="m506.271 349.199-13.196-13.195c-6.41-6.409-16.302-7.248-23.636-2.538l-13.566-52.554 21.792-21.801c3.588-3.58 5.565-8.341 5.565-13.405s-1.976-9.826-5.559-13.4l-13.194-13.194c-3.58-3.58-8.339-5.551-13.4-5.551-4.246 0-8.269 1.404-11.569 3.961l-10.607-41.089 46.006-54.243c9.556-11.267 14.485-25.602 13.88-40.364-.145-3.535-.613-7.017-1.371-10.416l18.602-24.032c4.105-5.305 6.135-11.917 5.717-18.632-.428-6.701-3.277-13.006-8.024-17.753-9.799-9.799-25.445-10.791-36.388-2.306l-23.863 18.477c-17.662-4.064-36.94.022-51.512 12.519l-51.846 44.46-45.795-11.819c2.559-3.303 3.962-7.326 3.962-11.574 0-5.064-1.971-9.825-5.55-13.405l-13.193-13.195c-7.39-7.391-19.418-7.392-26.81 0l-21.805 21.804-52.553-13.568c4.709-7.336 3.868-17.229-2.542-23.64l-13.193-13.195c-3.58-3.579-8.341-5.551-13.405-5.551s-9.825 1.972-13.404 5.551l-20.545 20.545-43.007-11.103c-11.477-2.965-23.817.402-32.2 8.785l-33.13 33.13c-10.005 9.457-9.392 29.088 3.687 37.369l192.328 128.411-63.847 76.54c-2.739 3.284-2.298 8.167.986 10.906 3.283 2.739 8.166 2.298 10.906-.986l117.96-141.408c4.239-5.082 8.939-9.846 13.969-14.161l119.109-102.141c17.031-14.606 42.804-13.619 58.668 2.246 15.779 15.779 16.833 41.47 2.4 58.489l-101.362 119.51c-4.505 5.312-9.51 10.258-14.874 14.702l-201.367 166.8c-.082.065-.161.131-.24.199l-25.305 20.962c-8.822 7.308-21.441 8.632-31.539 3.189l38.012-38.012c3.024-3.024 3.024-7.927 0-10.951-3.023-3.024-7.926-3.024-10.951 0l-38.212 38.212c-6.023-10.237-4.864-23.415 2.737-32.528l48.425-58.044c2.74-3.284 2.299-8.167-.985-10.906-3.284-2.74-8.167-2.298-10.906.985l-24.198 29.004c-14.867-3.4-33.053-3.194-54.183.647-8.102 1.473-14.661 7.274-17.118 15.14-2.463 7.884-.366 16.408 5.472 22.246l33.927 33.928c1.354 3.754 3.238 7.36 5.646 10.71l-11.416 11.416c-3.024 3.024-3.024 7.927 0 10.951 2.421 2.234 6.931 3.512 10.951 0l11.541-11.541c3.125 2.137 6.46 3.835 9.922 5.076l33.88 33.881c10.994 11.975 34.529 6.091 37.387-11.646 3.826-21.051 4.045-39.181.685-54.017l132.444-109.71 126.069 188.822c7.589 11.77 26.233 14.923 37.368 3.688l33.132-33.13c8.382-8.382 11.748-20.72 8.785-32.198l-11.101-43.004 20.546-20.546c7.391-7.392 7.391-19.418.001-26.809zm-242.603-304.098c1.352-1.352 3.553-1.354 4.907 0l13.194 13.194c.875 1.309 1.738 2.192 0 4.908l-4.675 4.675-28.775-7.429zm-116.903-28.599c1.309-.874 2.192-1.738 4.907 0l13.194 13.194c1.353 1.353 1.353 3.555.001 4.908l-3.417 3.416-28.775-7.429zm-127.547 64.896c-3.903-2.854-5.784-8.974-.87-14.005l206.62 128.897-12.045 14.439zm253.623 60.425c-5.683 4.873-10.993 10.256-15.782 15.997l-22.076 26.464-205.394-128.131 21.424-21.424c4.524-4.524 11.183-6.339 17.378-4.741l57.258 14.782-11.038 11.038c-3.024 3.024-3.024 7.927 0 10.951 2.421 2.233 6.931 3.512 10.951 0l17.494-17.494 98.235 25.361-11.206 11.206c-3.024 3.024-3.024 7.927 0 10.951 2.421 2.233 6.931 3.512 10.951 0l17.662-17.663 67.071 17.316zm187.311-107.998 16.655-12.897c10.827-8.391 25.42 6.041 16.964 16.971l-12.953 16.733c-2.516-4.301-5.578-8.307-9.17-11.899-3.51-3.51-7.381-6.474-11.496-8.908zm-424.337 341.874c.358-1.145 1.572-3.879 5.106-4.521 11.185-2.033 26.086-3.731 39.941-2.133l-12.756 15.29c-4.832 5.793-7.934 12.444-9.357 19.336l-21.293-21.294c-2.563-2.563-2.001-5.524-1.641-6.678zm412.814-145.638c1.309-.874 2.185-1.737 4.897.001l13.201 13.201c.875 1.311 1.743 2.178-.008 4.892l-15.341 15.347c-1.64-6.353-5.733-22.208-7.427-28.769zm-305.521 243.27c-1.836 5.2-5.49 7.132-11.2 3.466l-21.275-21.275c6.839-1.413 13.44-4.483 19.196-9.25l15.424-12.776c1.577 13.829-.119 28.686-2.145 39.835zm333.982-12.526-20.841 20.839-96.272-153.341c-2.273-3.622-7.053-4.715-10.675-2.441s-4.715 7.054-2.44 10.675l98.154 156.339-1.058 1.058c-1.87 1.871-4.456 2.794-7.086 2.535-2.632-.26-4.984-1.671-6.453-3.871l-126.956-190.155 14.437-11.959 9.64 16.236c2.357 2.834 5.424 5.22 10.612 2.705 3.677-2.183 4.888-6.934 2.705-10.611l-10.883-18.33 26.767-22.173c6.061-5.021 11.715-10.609 16.805-16.611l43.094-50.81 16.066 62.237-17.664 17.664c-3.024 3.024-3.024 7.926 0 10.951 2.422 2.234 6.93 3.512 10.952 0l11.206-11.206 25.359 98.236-17.492 17.493c-3.024 3.024-3.024 7.927 0 10.951 2.422 2.234 6.93 3.512 10.952 0l11.035-11.035 14.778 57.249c1.598 6.193-.219 12.851-4.742 17.375zm18.229-95.748-14.088 14.088c-1.758-7.032-5.594-21.654-7.423-28.772l3.418-3.418c1.35-1.351 3.548-1.351 4.898-.001l13.195 13.195c1.353 1.353 1.353 3.555 0 4.908z"/></g></svg>