<?xml version="1.0" encoding="UTF-8" standalone="no"?>
<!DOCTYPE svg PUBLIC "-//W3C//DTD SVG 1.1//EN" "http://www.w3.org/Graphics/SVG/1.1/DTD/svg11.dtd">
<svg version="1.1" xmlns="http://www.w3.org/2000/svg" xmlns:xlink="http://www.w3.org/1999/xlink" preserveAspectRatio="xMidYMid meet" viewBox="0 0 640 640" width="640" height="640"><defs><path d="M601.57 241.64C572.2 162.46 555.88 118.47 552.62 109.68C544.27 87.38 522.94 72.62 499.15 72.48C464.18 72.48 184.44 72.48 149.47 72.48C125.68 72.48 104.34 87.38 96 109.68C92.78 118.36 76.69 161.81 47.73 240C35.66 251.16 28.96 257.36 27.62 258.6C10.12 273.5 0 295.38 0 318.36C0 337.59 0 491.41 0 510.63C0.14 542.09 25.71 567.52 57.16 567.52C60.77 567.52 89.65 567.52 93.26 567.52C124.72 567.52 150.29 542.09 150.43 510.63C150.43 508.77 150.43 499.47 150.43 482.74L489.57 482.74C489.57 499.47 489.57 508.77 489.57 510.63C489.71 542.09 515.28 567.52 546.74 567.52C550.35 567.52 579.23 567.52 582.84 567.52C614.29 567.52 639.86 542.09 640 510.63C640 490.9 640 333.03 640 313.3C639.86 291.83 631.11 271.32 615.52 256.41C613.66 254.44 609.01 249.52 601.57 241.64ZM149.47 99.83C184.45 99.83 464.3 99.83 499.28 99.83C511.59 99.83 522.67 107.49 527.04 118.97C529.89 126.63 544.11 164.92 569.71 233.85C550.59 233.85 539.97 233.85 537.85 233.85C530.32 182.56 482.6 147.15 431.32 154.8C390.43 160.82 358.29 192.96 352.27 233.85C334.06 233.85 242.98 233.85 79.04 233.85L121.71 118.97C132.01 106.21 141.26 99.83 149.47 99.83ZM379.9 233.85C387.42 197.88 422.7 174.91 458.67 182.43C484.38 187.9 504.48 208 509.95 233.85C483.94 233.85 392.9 233.85 379.9 233.85ZM93.26 540.17C89.65 540.17 60.77 540.17 57.16 540.17C40.75 540.17 27.49 527.04 27.35 510.63C27.35 507.05 27.35 478.39 27.35 474.8C35.56 480.14 46.36 482.74 57.16 482.74C61.56 482.74 83.53 482.74 123.08 482.74L123.08 510.63C114.14 530.32 104.21 540.17 93.26 540.17ZM582.84 540.17C579.23 540.17 550.35 540.17 546.74 540.17C530.32 540.17 517.06 526.91 516.92 510.63C516.92 508.77 516.92 499.47 516.92 482.74C556.47 482.74 578.44 482.74 582.84 482.74C593.64 482.74 604.44 480.14 612.65 474.8C612.65 477.19 612.65 489.14 612.65 510.63C603.72 530.32 593.78 540.17 582.84 540.17ZM57.16 455.38C40.89 455.52 27.49 442.53 27.35 426.12C27.35 415.34 27.35 329.14 27.35 318.36C27.35 303.32 34.05 288.96 45.54 279.25C45.68 279.11 45.95 278.84 46.09 278.7C47.33 277.53 53.52 271.7 64.68 261.2L582.56 261.2C590.44 269.65 594.82 274.34 595.69 275.28C595.83 275.56 596.24 275.69 596.38 275.97C606.63 285.68 612.51 299.21 612.51 313.3C612.51 320.82 612.51 358.43 612.51 426.12C612.59 426.12 612.64 426.12 612.65 426.12C612.51 442.39 599.11 455.52 582.84 455.38C477.7 455.38 109.73 455.38 57.16 455.38Z" id="a1F1G7sC5l"></path><path d="M77.95 315.9C70.43 315.9 64.27 322.05 64.27 329.57C64.27 336.68 64.27 393.57 64.27 400.68C64.27 408.21 70.43 414.36 77.95 414.36C88.21 414.36 170.26 414.36 180.51 414.36C188.03 414.36 194.19 408.21 194.19 400.68C194.19 393.57 194.19 336.68 194.19 329.57C194.19 322.05 188.03 315.9 180.51 315.9C160 315.9 88.21 315.9 77.95 315.9ZM91.62 387.01L91.62 343.25L166.84 343.25L166.84 387.01L91.62 387.01Z" id="a1HciCxgYB"></path><path d="M459.49 315.9C451.97 315.9 445.81 322.05 445.81 329.57C445.81 336.68 445.81 393.57 445.81 400.68C445.81 408.21 451.97 414.36 459.49 414.36C469.74 414.36 551.79 414.36 562.05 414.36C569.57 414.36 575.73 408.21 575.73 400.68C575.73 393.57 575.73 336.68 575.73 329.57C575.73 322.05 569.57 315.9 562.05 315.9C541.54 315.9 469.74 315.9 459.49 315.9ZM473.16 387.01L473.16 343.25L548.38 343.25L548.38 387.01L473.16 387.01Z" id="bxdBHbcEv"></path><path d="M253.95 373.33C246.43 373.33 240.27 379.49 240.27 387.01C240.27 394.53 246.43 400.68 253.95 400.68C267.16 400.68 372.84 400.68 386.05 400.68C393.57 400.68 399.73 394.53 399.73 387.01C399.73 379.49 393.57 373.33 386.05 373.33C359.63 373.33 267.16 373.33 253.95 373.33Z" id="c4fNOqlugu"></path><path d="M253.95 330.94C246.43 330.94 240.27 337.09 240.27 344.62C240.27 352.14 246.43 358.29 253.95 358.29C267.16 358.29 372.84 358.29 386.05 358.29C393.57 358.29 399.73 352.14 399.73 344.62C399.73 337.09 393.57 330.94 386.05 330.94C359.63 330.94 267.16 330.94 253.95 330.94Z" id="eEkbLaH8P"></path></defs><g><g><g><use xlink:href="#a1F1G7sC5l" opacity="1" fill="#ffffff" fill-opacity="1"></use><g><use xlink:href="#a1F1G7sC5l" opacity="1" fill-opacity="0" stroke="#000000" stroke-width="1" stroke-opacity="0"></use></g></g><g><use xlink:href="#a1HciCxgYB" opacity="1" fill="#ffffff" fill-opacity="1"></use><g><use xlink:href="#a1HciCxgYB" opacity="1" fill-opacity="0" stroke="#000000" stroke-width="1" stroke-opacity="0"></use></g></g><g><use xlink:href="#bxdBHbcEv" opacity="1" fill="#ffffff" fill-opacity="1"></use><g><use xlink:href="#bxdBHbcEv" opacity="1" fill-opacity="0" stroke="#000000" stroke-width="1" stroke-opacity="0"></use></g></g><g><use xlink:href="#c4fNOqlugu" opacity="1" fill="#ffffff" fill-opacity="1"></use><g><use xlink:href="#c4fNOqlugu" opacity="1" fill-opacity="0" stroke="#000000" stroke-width="1" stroke-opacity="0"></use></g></g><g><use xlink:href="#eEkbLaH8P" opacity="1" fill="#ffffff" fill-opacity="1"></use><g><use xlink:href="#eEkbLaH8P" opacity="1" fill-opacity="0" stroke="#000000" stroke-width="1" stroke-opacity="0"></use></g></g></g></g></svg>