<svg xmlns="http://www.w3.org/2000/svg" xmlns:xlink="http://www.w3.org/1999/xlink" version="1.1" style="enable-background:new 0 0 491.996 491.996;" xml:space="preserve" width="491.996" height="491.996"><rect id="backgroundrect" width="100%" height="100%" x="0" y="0" fill="none" stroke="none"/>
















<g class="currentLayer" style=""><title>Layer 1</title><g id="svg_1" class="selected" fill="#484848" fill-opacity="1">
	<g id="svg_2" fill="#484848" fill-opacity="1">
		<path d="M484.132,124.986l-16.116-16.228c-5.072-5.068-11.82-7.86-19.032-7.86c-7.208,0-13.964,2.792-19.036,7.86l-183.84,183.848    L62.056,108.554c-5.064-5.068-11.82-7.856-19.028-7.856s-13.968,2.788-19.036,7.856l-16.12,16.128    c-10.496,10.488-10.496,27.572,0,38.06l219.136,219.924c5.064,5.064,11.812,8.632,19.084,8.632h0.084    c7.212,0,13.96-3.572,19.024-8.632l218.932-219.328c5.072-5.064,7.856-12.016,7.864-19.224    C491.996,136.902,489.204,130.046,484.132,124.986z" id="svg_3" fill="#484848" fill-opacity="1"/>
	</g>
</g><g id="svg_4">
</g><g id="svg_5">
</g><g id="svg_6">
</g><g id="svg_7">
</g><g id="svg_8">
</g><g id="svg_9">
</g><g id="svg_10">
</g><g id="svg_11">
</g><g id="svg_12">
</g><g id="svg_13">
</g><g id="svg_14">
</g><g id="svg_15">
</g><g id="svg_16">
</g><g id="svg_17">
</g><g id="svg_18">
</g></g></svg>